<?xml version="1.0" encoding="UTF-8" standalone="no"?>
<!DOCTYPE svg PUBLIC "-//W3C//DTD SVG 1.1//EN" "http://www.w3.org/Graphics/SVG/1.1/DTD/svg11.dtd">
<svg width="100%" height="100%" viewBox="0 0 808 808" version="1.1" xmlns="http://www.w3.org/2000/svg" xmlns:xlink="http://www.w3.org/1999/xlink" xml:space="preserve" xmlns:serif="http://www.serif.com/" style="fill-rule:evenodd;clip-rule:evenodd;stroke-linejoin:round;stroke-miterlimit:2;">
    <g transform="matrix(1,0,0,1,-1906.25,-2750.66)">
        <g transform="matrix(0.866025,-0.5,0.5,0.866025,-1939.13,1789.76)">
            <rect x="2722.85" y="3117.38" width="324.457" height="100"/>
        </g>
        <g transform="matrix(1.00358,0,0,1.00358,-4.4748,-54.6224)">
            <path d="M2708.68,2795.27L1903.91,2795.27L1903.91,3600.05L2708.68,3600.05L2708.68,2795.27ZM2609.04,2894.92L2609.04,3500.41C2609.04,3500.41 2003.55,3500.41 2003.55,3500.41C2003.55,3500.41 2003.55,2894.92 2003.55,2894.92C2197.97,2894.92 2609.04,2894.92 2609.04,2894.92L2609.04,2894.92Z" style="fill:rgb(255,0,57);fill-opacity:0;"/>
        </g>
        <g transform="matrix(0.866025,-0.5,0.5,0.866025,-1939.13,1789.76)">
            <path d="M3151.39,3217.3L3035.92,3217.3L3093.66,3317.3L2904.24,2989.22L2675.06,3386.18C2862.04,3386.18 3133.43,3386.18 3133.43,3386.18L3093.66,3317.3L3209.13,3317.3L3151.39,3217.3L3306.63,3486.18L2501.86,3486.18L2904.24,2789.22L3151.39,3217.3Z"/>
        </g>
    </g>
</svg>
